<svg xmlns="http://www.w3.org/2000/svg" width="194" height="218" fill-rule="evenodd" clip-rule="evenodd" image-rendering="optimizeQuality" shape-rendering="geometricPrecision" text-rendering="geometricPrecision" viewBox="0 0 6754 7597"><path fill="#ff7069" d="M3711 92l2708 1564c213,123 334,334 334,579l0 3127c0,246 -122,456 -334,579l-2708 1564c-213,123 -456,123 -669,0l-2708 -1564c-213,-123 -334,-334 -334,-579l0 -3127c0,-246 122,-456 334,-579l2708 -1564c213,-123 456,-123 669,0z"/><path fill="#ecf0f1" d="M5488 5425l1023 0c-5,367 -13,1095 -511,1111 -281,0 -511,-230 -511,-511l0 -600z"/><path fill="#fff" d="M1237 1591l0 4434c0,281 230,511 511,511l4252 0c-281,0 -511,-230 -511,-511l0 -4458 -4252 24z"/><path fill="#ecf0f1" d="M1429 1782l0 4242c0,175 144,319 319,319l3624 0c-49,-96 -77,-204 -77,-319l0 -4264 -3866 21z"/><polygon fill="#83cf8f" points="2592 3717 4156 3717 4156 3864 2592 3864"/><path fill="#c3cccf" d="M1745 4029l3258 0 0 64 -3258 0 0 -64zm0 684l0 0 2233 0 0 64 -2233 0 0 -64zm0 -171l0 0 3258 0 0 64 -3258 0 0 -64zm0 -171l0 0 3258 0 0 64 -3258 0 0 -64zm0 -171l0 0 3258 0 0 64 -3258 0 0 -64z"/><polygon fill="#83cf8f" points="4051 5019 4877 5019 4877 5097 4051 5097"/><polygon fill="#6b7f9e" points="2216 3574 2216 3436 2050 3436"/><polygon fill="#6b7f9e" points="4532 3436 4532 3574 4697 3436"/><polygon fill="#6b7f9e" points="4697 3436 4532 3574 5193 3574 4945 3299 5193 3023 4697 3023"/><polygon fill="#8597b1" points="4532 3436 4697 3436 4697 3023 4697 2885 2050 2885 2050 3023 2050 3436 2216 3436"/><polygon fill="#6b7f9e" points="2050 3436 2050 3023 1555 3023 1802 3299 1555 3574 2216 3574"/><path fill="#fff" d="M2570 3218c2,0 4,1 6,3l16 17c-9,11 -20,19 -33,25 -13,6 -29,9 -47,9 -16,0 -31,-3 -44,-8 -13,-6 -24,-13 -33,-23 -9,-10 -16,-22 -21,-35 -5,-14 -7,-29 -7,-45 0,-16 3,-32 8,-45 5,-14 13,-25 22,-35 10,-10 21,-18 34,-23 13,-5 28,-8 44,-8 16,0 30,3 43,8 12,5 23,12 32,21l-14 19c-1,1 -2,2 -3,3 -1,1 -3,1 -5,1 -1,0 -3,0 -5,-1 -2,-1 -3,-2 -5,-3 -2,-1 -4,-3 -7,-4 -3,-2 -5,-3 -9,-4 -3,-1 -7,-2 -12,-3 -4,-1 -10,-1 -15,-1 -10,0 -19,2 -27,5 -8,4 -15,9 -21,15 -6,7 -10,15 -14,24 -3,10 -5,20 -5,33 0,12 2,23 5,33 3,10 8,18 14,24 6,7 13,12 21,15 8,4 17,5 26,5 6,0 11,0 15,-1 4,-1 9,-2 12,-3 4,-1 7,-3 11,-5 3,-2 7,-5 10,-8 1,-1 2,-2 3,-2 1,-1 2,-1 4,-1zm91 -135l0 0 0 61 77 0 0 31 -77 0 0 62 97 0 0 33 -138 0 0 -219 138 0 0 32 -97 0zm199 72l0 0c8,0 14,-1 20,-3 6,-2 10,-5 14,-8 4,-3 6,-7 8,-12 2,-5 3,-10 3,-15 0,-11 -4,-20 -11,-26 -7,-6 -18,-9 -34,-9l-26 0 0 73 25 0zm105 115l0 0 -37 0c-7,0 -12,-3 -15,-8l-46 -70c-2,-3 -4,-5 -6,-6 -2,-1 -5,-2 -9,-2l-17 0 0 86 -41 0 0 -219 67 0c15,0 28,2 38,5 11,3 19,7 26,13 7,6 12,12 15,20 3,8 5,16 5,26 0,7 -1,14 -3,21 -2,7 -5,13 -9,18 -4,5 -9,10 -15,14 -6,4 -13,7 -21,10 3,1 5,3 7,5 2,2 4,5 6,7l55 81zm171 -185l0 0 0 -33 -173 0 0 33 66 0 0 185 41 0 0 -185 66 0zm70 185l0 0 -41 0 0 -219 41 0 0 219zm90 -187l0 0 0 65 82 0 0 33 -82 0 0 89 -41 0 0 -219 138 0 0 32 -97 0zm171 187l0 0 -41 0 0 -219 41 0 0 219zm199 -52l0 0c2,0 4,1 6,3l16 17c-9,11 -20,19 -33,25 -13,6 -29,9 -47,9 -16,0 -31,-3 -44,-8 -13,-6 -24,-13 -33,-23 -9,-10 -16,-22 -21,-35 -5,-14 -7,-29 -7,-45 0,-16 3,-32 8,-45 5,-14 13,-25 22,-35 10,-10 21,-18 34,-23 13,-5 28,-8 44,-8 16,0 30,3 43,8 12,5 23,12 32,21l-14 19c-1,1 -2,2 -3,3 -1,1 -3,1 -5,1 -2,0 -3,0 -5,-1 -2,-1 -3,-2 -5,-3 -2,-1 -4,-3 -7,-4 -3,-2 -5,-3 -9,-4 -3,-1 -7,-2 -12,-3 -4,-1 -10,-1 -15,-1 -10,0 -19,2 -27,5 -8,4 -15,9 -21,15 -6,7 -10,15 -14,24 -3,10 -5,20 -5,33 0,12 2,23 5,33 3,10 8,18 14,24 6,7 13,12 21,15 8,4 17,5 26,5 6,0 11,0 15,-1 4,-1 9,-2 12,-3 4,-1 7,-3 11,-5 3,-2 7,-5 10,-8 1,-1 2,-2 3,-2 1,-1 2,-1 4,-1zm166 -31l0 0 -27 -73c-1,-3 -3,-7 -4,-11 -1,-4 -3,-9 -4,-14 -1,5 -3,10 -4,14 -1,4 -3,8 -4,12l-26 73 70 0zm72 83l0 0 -32 0c-4,0 -6,-1 -9,-3 -2,-2 -4,-4 -5,-7l-16 -45 -91 0 -16 45c-1,2 -2,4 -5,6 -2,2 -5,3 -9,3l-32 0 86 -219 42 0 86 219zm154 -185l0 0 0 -33 -173 0 0 33 66 0 0 185 41 0 0 -185 66 0zm70 -1l0 0 0 61 77 0 0 31 -77 0 0 62 97 0 0 33 -138 0 0 -219 138 0 0 32 -97 0z"/><polygon fill="#ffe356" points="4337 6050 4591 6050 4591 6753 4462 6633 4337 6753"/><path fill="#ff7069" d="M4464 5433c36,0 64,29 65,64l5 1c14,-33 52,-48 84,-34 33,14 49,51 35,84l5 3c25,-25 66,-25 91,0 25,25 25,66 0,91l3 5c33,-13 70,2 84,35 14,33 -2,70 -34,84l1 6c36,0 64,29 64,65 0,36 -29,64 -64,65l-1 6c33,14 48,52 34,84 -14,33 -51,49 -84,35l-3 5c25,25 25,66 0,91 -25,25 -66,25 -91,0l-5 3c13,33 -2,70 -35,84 -33,14 -70,-2 -84,-34l-5 1c0,35 -29,64 -65,64 -36,0 -64,-29 -65,-64l-6 -1c-14,33 -52,48 -84,34 -33,-14 -49,-51 -35,-84l-5 -3c-25,25 -66,25 -91,0 -25,-25 -25,-66 0,-91l-3 -5c-33,13 -70,-2 -84,-35 -14,-33 2,-70 34,-84l-1 -6c-35,0 -64,-29 -64,-65 0,-36 29,-64 64,-65l1 -6c-33,-14 -48,-52 -34,-84 14,-33 51,-49 84,-35l3 -5c-25,-25 -25,-66 1,-91 25,-25 66,-25 91,0l5 -3c-13,-33 2,-70 35,-84 33,-14 70,2 84,34l6 -1c0,-35 29,-64 65,-64z"/><path fill="#fff" d="M4464 5534c167,0 303,136 303,303 0,167 -136,303 -303,303 -167,0 -303,-136 -303,-303 0,-167 136,-303 303,-303z"/><path fill="#ffe356" d="M2928 1095c-47,-37 -106,-66 -157,-91 -31,-15 -60,-30 -82,-43 -50,-32 -86,-112 -81,-180 2,-29 13,-67 53,-85 42,-19 74,15 85,26 22,23 41,57 53,93 9,27 10,46 9,56 -15,-2 -31,7 -36,22 -6,17 3,36 21,42 27,9 52,2 67,-18 22,69 50,134 83,191 -5,-4 -10,-9 -15,-13zm450 1195l0 0 276 0 0 -29c-81,-5 -187,-187 -194,-285l-36 -562c122,-15 233,-89 322,-204 -4,14 -5,28 -5,42 0,45 25,83 66,103 17,8 35,12 54,12 28,0 55,-9 76,-27 48,-39 53,-89 33,-117 -17,-24 -47,-30 -73,-15 -16,9 -21,29 -12,45 6,10 16,16 27,17 -3,5 -8,12 -17,19 -16,13 -40,15 -60,6 -10,-5 -28,-17 -28,-43 0,-37 20,-70 62,-104 41,-33 96,-60 145,-84 33,-16 64,-31 88,-47 34,-22 65,-59 85,-104 20,-44 29,-93 26,-137 -5,-66 -38,-116 -92,-140 -59,-26 -121,-7 -170,53 -2,2 -4,4 -5,7 8,-61 13,-124 13,-189l-581 0 -581 0c0,65 5,128 13,189 -2,-2 -4,-4 -5,-7 -49,-60 -111,-79 -170,-53 -54,24 -87,74 -92,140 -3,44 6,92 26,137 21,46 51,83 85,104 24,16 55,31 88,47 49,24 104,51 145,84 43,34 62,67 62,104 0,26 -18,38 -28,43 -20,9 -44,7 -60,-6 -9,-7 -14,-14 -17,-19 11,-1 21,-6 27,-17 9,-16 4,-36 -12,-45 -27,-15 -57,-9 -73,15 -20,28 -14,77 33,117 21,18 48,27 76,27 18,0 36,-4 54,-12 41,-19 66,-58 66,-103 0,-15 -2,-29 -5,-42 89,115 200,189 322,204l-37 562c-6,98 -112,280 -194,285l0 29 276 0zm450 -1195l0 0c-5,4 -10,9 -15,13 32,-58 61,-122 83,-191 15,21 40,27 67,18 17,-6 26,-25 21,-42 -5,-15 -21,-24 -36,-22 -1,-10 1,-29 9,-56 12,-36 31,-70 53,-93 10,-11 42,-45 85,-26 40,18 51,56 53,85 5,68 -31,149 -81,180 -21,14 -51,28 -82,43 -52,25 -111,54 -157,91z"/><path fill="#fcd34e" d="M3837 505c0,0 113,763 -434,898l34 571c-1,152 123,315 217,315l0 -29c-81,-5 -187,-187 -194,-285l-36 -562c121,-15 232,-88 321,-202 0,-1 1,-1 2,-2 0,0 43,-50 74,-108 -3,2 -5,4 -7,7 9,-16 18,-33 27,-51 29,-68 56,-141 56,-141 17,-54 39,-143 50,-222 8,-61 13,-124 13,-189l-122 0z"/><path fill="#666" d="M3776 2795l-796 0 0 -447c0,-32 26,-58 58,-58l679 0c32,0 58,26 58,58l0 447z"/><path fill="#807d7d" d="M3850 2885l-944 0 0 -75c0,-29 24,-53 53,-53l838 0c29,0 53,24 53,53l0 75z"/><path fill="#fcd34e" d="M3973 505l-1191 0c-14,0 -26,-12 -26,-26l0 -1c0,-14 12,-26 26,-26l1191 0c14,0 26,12 26,26l0 1c0,14 -12,26 -26,26z"/><polygon fill="#807d7d" points="3187 2449 3565 2449 3565 2485 3187 2485"/><polygon fill="#807d7d" points="3187 2533 3565 2533 3565 2569 3187 2569"/><polygon fill="#807d7d" points="3265 2616 3488 2616 3488 2652 3265 2652"/></svg>