<svg xmlns="http://www.w3.org/2000/svg" viewBox="0 0 64 64"><g data-name="Certificate"><path fill="#546e7a" d="M35.84 50.293H3.27a1.5 1.5 0 0 1-1.5-1.5V6.6328a1.5 1.5 0 0 1 1.5-1.5h57.461a1.5 1.5 0 0 1 0 3H4.77v39.16H35.84a1.5 1.5 0 0 1 0 3zM60.7305 50.293H52.78a1.5 1.5 0 0 1 0-3h6.45V12.7578a1.5 1.5 0 1 1 3 0V48.793A1.5 1.5 0 0 1 60.7305 50.293z"/><path fill="#546e7a" d="M40.8975,17.4438H23.1025a1.5,1.5,0,0,1,0-3h17.795a1.5,1.5,0,0,1,0,3Z"/><path fill="#ffcf4a" d="M41.8379 58.8672a1.5 1.5 0 0 1-1.5-1.5029l.0254-13.5918a1.5 1.5 0 0 1 1.5-1.4971h.0029a1.5 1.5 0 0 1 1.4971 1.5029l-.0205 11.04 3.2383-1.794a1.5 1.5 0 1 1 1.4531 2.624l-5.47 3.0308A1.4952 1.4952 0 0 1 41.8379 58.8672zM52.7783 58.8672a1.5 1.5 0 0 1-1.5-1.5V43.7754a1.5 1.5 0 1 1 3 0V57.3672A1.5 1.5 0 0 1 52.7783 58.8672z"/><path fill="#546e7a" d="M52.3975 24.07H11.6025a1.5 1.5 0 1 1 0-3h40.795a1.5 1.5 0 0 1 0 3zM35.3975 30.6968H11.6025a1.5 1.5 0 0 1 0-3h23.795a1.5 1.5 0 0 1 0 3zM33.3975 37.3232H11.6025a1.5 1.5 0 0 1 0-3h21.795a1.5 1.5 0 0 1 0 3z"/><path fill="#ffcf4a" d="M47.3076,47.4478a1.5,1.5,0,0,1,0-3,6.41,6.41,0,1,0-6.4092-6.41,6.35,6.35,0,0,0,1.9971,4.6494,1.5,1.5,0,1,1-2.0644,2.1758,9.32,9.32,0,0,1-2.9327-6.8252,9.41,9.41,0,1,1,9.4092,9.41Z"/></g></svg>